<?xml version="1.0" encoding="UTF-8"?>
<svg xmlns="http://www.w3.org/2000/svg" xmlns:xlink="http://www.w3.org/1999/xlink" width="192.76pt" height="192.76pt" viewBox="0 0 192.76 192.76" version="1.1">
<g id="surface1">
<path style=" stroke:none;fill-rule:evenodd;fill:transparent;fill-opacity:1;" d="M 0 0.00390625 L 192.757813 0.00390625 L 192.757813 192.761719 L 0 192.761719 L 0 0.00390625 "/>
<path style=" stroke:none;fill-rule:evenodd;fill:rgb(100%,100%,100%);fill-opacity:1;" d="M 44.203125 65.042969 C 44.203125 65.042969 59.914063 39.257813 92.195313 39.257813 C 124.300781 39.257813 139.328125 64.191406 139.328125 64.191406 L 182.878906 64.191406 L 181.171875 74.949219 C 181.171875 74.949219 179.976563 79.21875 177.925781 79.730469 L 181 79.730469 C 181 79.730469 181.855469 83.488281 175.878906 96.46875 L 188.6875 96.46875 C 188.6875 96.46875 189.195313 119.011719 161.699219 129.769531 C 161.699219 129.769531 147.523438 134.382813 140.355469 126.523438 C 140.355469 126.523438 125.839844 153.507813 92.195313 153.507813 C 58.550781 153.507813 43.351563 125.84375 43.351563 125.84375 L 4.070313 125.84375 L 10.390625 114.570313 L 6.121094 114.570313 L 11.074219 105.347656 L 19.609375 105.347656 L 21.148438 101.933594 L 17.050781 101.933594 L 26.785156 84 L 32.25 84 L 34.46875 78.363281 L 29.859375 78.363281 L 37.03125 65.042969 L 44.203125 65.042969 "/>
<path style=" stroke:none;fill-rule:evenodd;fill:rgb(98.799133%,69.398499%,21.199036%);fill-opacity:1;" d="M 92.535156 147.53125 C 120.199219 147.53125 142.402344 124.816406 142.402344 96.980469 C 142.402344 68.972656 120.199219 46.257813 92.535156 46.257813 C 65.039063 46.257813 42.839844 68.972656 42.839844 96.980469 C 42.839844 124.816406 65.039063 147.53125 92.535156 147.53125 "/>
<path style=" stroke:none;fill-rule:evenodd;fill:rgb(30.599976%,24.299622%,57.598877%);fill-opacity:1;" d="M 98.171875 96.636719 L 95.949219 96.636719 C 95.78125 96.636719 95.609375 96.808594 95.609375 96.980469 C 95.609375 96.980469 95.78125 97.152344 95.949219 97.152344 L 98.171875 97.152344 C 98.851563 97.152344 99.535156 97.324219 99.367188 97.664063 L 93.730469 108.421875 C 93.046875 109.789063 91.511719 109.445313 91.167969 108.421875 L 88.4375 93.734375 L 98.34375 86.050781 C 99.367188 85.195313 101.242188 83.828125 102.269531 83.828125 L 104.316406 83.828125 C 105.6875 83.828125 106.195313 84.511719 105.855469 85.195313 L 105.515625 86.050781 C 105.175781 86.390625 104.488281 86.390625 103.808594 86.390625 L 102.609375 86.390625 C 102.441406 86.390625 102.269531 86.5625 102.269531 86.734375 C 102.269531 86.902344 102.441406 87.074219 102.609375 87.074219 L 103.808594 87.074219 C 104.316406 87.074219 105.003906 87.074219 104.660156 87.414063 L 100.050781 96.296875 C 99.878906 96.636719 98.851563 96.636719 98.171875 96.636719 Z M 115.421875 102.105469 C 110.640625 107.738281 108.074219 109.617188 103.296875 109.617188 C 101.757813 109.617188 100.902344 109.273438 101.242188 108.59375 L 106.882813 97.324219 L 109.101563 97.324219 C 111.492188 97.324219 111.148438 99.199219 110.46875 101.933594 C 110.296875 102.273438 110.640625 102.445313 110.980469 102.105469 L 116.273438 92.710938 C 116.445313 92.027344 115.933594 92.027344 115.589844 92.367188 C 112.855469 96.125 109.953125 95.785156 108.929688 95.785156 L 107.90625 95.785156 L 113.882813 84.34375 L 116.273438 84.34375 C 119.347656 84.511719 120.714844 87.074219 119.859375 93.394531 L 121.054688 93.394531 L 125.496094 84.683594 C 125.839844 84 125.152344 83.316406 124.300781 83.316406 L 94.414063 83.316406 C 92.707031 83.316406 92.535156 84.511719 94.242188 84.511719 C 95.609375 84.511719 95.609375 86.5625 94.414063 87.414063 L 81.605469 97.492188 L 84.167969 109.445313 C 84.335938 110.300781 85.019531 110.8125 86.046875 110.8125 L 110.640625 110.8125 C 111.660156 110.8125 112.175781 110.300781 112.515625 109.957031 L 116.957031 102.105469 C 117.46875 101.078125 116.105469 101.078125 115.421875 102.105469 "/>
<path style=" stroke:none;fill-rule:evenodd;fill:rgb(30.599976%,24.299622%,57.598877%);fill-opacity:1;" d="M 60.597656 98.859375 L 52.742188 98.859375 L 62.820313 85.707031 Z M 58.890625 107.058594 C 58.550781 108.253906 57.183594 109.273438 55.476563 109.617188 L 53.769531 110.128906 L 55.304688 107.566406 C 55.648438 106.886719 54.792969 106.371094 53.9375 107.398438 C 47.789063 114.570313 45.742188 117.984375 36.347656 117.984375 L 33.785156 117.984375 C 33.101563 117.984375 32.25 117.644531 32.761719 116.960938 L 36.175781 110.8125 L 48.816406 110.8125 C 50.523438 110.8125 50.011719 109.445313 48.984375 109.445313 C 48.300781 109.445313 47.621094 108.9375 47.105469 108.253906 C 46.9375 107.910156 46.59375 107.058594 47.105469 106.371094 L 52.058594 99.882813 L 60.085938 99.882813 Z M 77.675781 109.445313 C 76.992188 109.445313 76.480469 108.9375 76.3125 108.421875 C 76.140625 107.910156 76.140625 106.714844 76.480469 106.199219 L 87.921875 85.707031 C 88.09375 85.367188 88.605469 84.683594 89.117188 84.683594 C 90.144531 84.683594 90.65625 83.316406 88.949219 83.316406 L 79.726563 83.316406 C 78.019531 83.316406 77.847656 84.511719 79.554688 84.511719 C 80.238281 84.511719 80.582031 85.195313 80.410156 85.707031 L 77.847656 90.320313 C 77.507813 90.832031 76.824219 90.832031 75.96875 90.832031 L 73.75 90.832031 C 73.578125 90.832031 73.578125 91.003906 73.578125 91.171875 C 73.578125 91.171875 73.578125 91.34375 73.75 91.34375 L 75.96875 91.34375 C 76.652344 91.34375 76.992188 91.515625 76.652344 92.199219 L 68.285156 107.738281 C 67.601563 108.59375 66.40625 108.765625 66.40625 107.226563 L 69.480469 84.511719 C 69.652344 83.660156 69.308594 83.316406 68.625 83.316406 L 64.015625 83.316406 C 63.503906 83.316406 63.160156 83.488281 62.988281 83.828125 L 61.28125 85.878906 C 61.113281 86.222656 60.597656 86.222656 60.085938 86.222656 L 56.328125 86.222656 C 56.160156 86.222656 55.988281 86.222656 55.988281 86.390625 C 55.988281 86.5625 56.160156 86.734375 56.328125 86.734375 L 59.402344 86.734375 C 59.914063 86.734375 60.597656 86.902344 60.429688 87.074219 L 55.988281 92.539063 C 55.816406 92.710938 55.476563 92.882813 55.132813 92.882813 L 53.9375 92.710938 C 53.769531 92.710938 53.597656 92.882813 53.597656 93.050781 C 53.597656 93.222656 53.769531 93.394531 53.9375 93.394531 L 54.964844 93.394531 C 55.304688 93.394531 55.304688 93.5625 55.132813 93.734375 L 51.035156 98.859375 C 50.863281 99.03125 50.351563 99.03125 50.011719 99.03125 L 46.425781 99.03125 C 46.253906 99.03125 46.082031 99.199219 46.082031 99.371094 C 46.082031 99.542969 46.253906 99.714844 46.425781 99.714844 L 49.5 99.714844 C 50.011719 99.714844 50.351563 99.714844 50.011719 100.054688 L 44.203125 107.398438 C 43.179688 108.765625 37.886719 109.445313 36.691406 109.445313 L 56.671875 72.386719 C 56.84375 72.046875 57.523438 71.363281 58.378906 71.363281 L 62.476563 71.363281 C 64.527344 71.363281 64.355469 69.996094 62.648438 69.996094 L 41.472656 69.996094 C 39.765625 69.996094 39.765625 71.363281 41.640625 71.363281 L 45.570313 71.363281 C 46.765625 71.363281 47.105469 72.046875 46.765625 72.558594 L 46.253906 73.582031 C 46.082031 73.925781 45.742188 74.09375 44.714844 74.09375 L 37.886719 74.09375 C 37.714844 74.09375 37.542969 74.09375 37.542969 74.265625 C 37.542969 74.4375 37.714844 74.609375 37.886719 74.609375 L 44.714844 74.609375 C 45.058594 74.609375 45.742188 74.609375 45.230469 75.289063 L 44.375 77.167969 C 44.203125 77.339844 43.691406 77.511719 43.351563 77.511719 L 40.105469 77.511719 C 39.933594 77.511719 39.765625 77.683594 39.765625 77.851563 C 39.765625 78.023438 39.933594 78.023438 40.105469 78.023438 L 43.179688 78.023438 C 43.691406 78.023438 43.691406 78.363281 43.519531 78.878906 L 41.128906 82.976563 C 40.960938 83.316406 40.617188 83.316406 39.933594 83.316406 L 38.738281 83.316406 C 38.570313 83.316406 38.398438 83.488281 38.398438 83.660156 C 38.398438 83.828125 38.570313 83.828125 38.738281 83.828125 L 39.933594 83.828125 C 40.449219 83.828125 40.449219 84.171875 40.277344 84.683594 L 38.570313 88.097656 C 38.226563 88.441406 37.886719 88.613281 36.691406 88.613281 L 29.6875 88.613281 C 29.515625 88.613281 29.347656 88.78125 29.347656 88.953125 C 29.347656 89.125 29.515625 89.296875 29.6875 89.296875 L 36.519531 89.296875 C 37.371094 89.296875 37.714844 89.636719 37.371094 90.148438 L 33.785156 96.808594 C 33.617188 97.152344 32.933594 97.152344 31.90625 97.152344 L 25.078125 97.152344 C 24.90625 97.152344 24.734375 97.324219 24.734375 97.492188 C 24.734375 97.664063 24.90625 97.835938 25.078125 97.835938 L 31.90625 97.835938 C 32.761719 97.835938 33.273438 97.835938 33.101563 98.175781 L 31.054688 102.105469 C 30.542969 102.785156 29.515625 102.785156 29.175781 102.785156 L 26.957031 102.785156 C 26.785156 102.785156 26.613281 102.785156 26.613281 102.957031 C 26.613281 103.128906 26.785156 103.300781 26.957031 103.300781 L 29.175781 103.300781 C 29.859375 103.300781 30.371094 103.46875 30.03125 103.8125 L 27.296875 108.9375 C 27.125 109.445313 25.929688 109.445313 25.246094 109.445313 L 14.488281 109.445313 C 14.316406 109.445313 14.148438 109.617188 14.148438 109.789063 C 14.148438 109.957031 14.316406 109.957031 14.488281 109.957031 L 25.246094 109.957031 C 25.929688 109.957031 26.785156 110.128906 26.441406 110.644531 L 24.734375 113.886719 C 24.566406 114.230469 23.882813 114.230469 23.027344 114.230469 L 20.808594 114.230469 C 20.636719 114.230469 20.636719 114.398438 20.636719 114.570313 C 20.636719 114.738281 20.636719 114.738281 20.808594 114.738281 L 23.027344 114.738281 C 23.539063 114.738281 24.222656 114.910156 24.050781 115.253906 L 22.855469 117.304688 C 22.515625 117.984375 22.171875 118.328125 21.320313 118.328125 L 16.027344 118.328125 C 13.976563 118.328125 13.976563 119.691406 15.683594 119.691406 L 47.277344 119.691406 C 48.300781 119.691406 48.300781 119.523438 48.644531 118.839844 L 53.425781 110.8125 L 77.335938 110.8125 C 79.042969 110.8125 78.53125 109.445313 77.675781 109.445313 "/>
<path style=" stroke:none;fill-rule:evenodd;fill:rgb(30.599976%,24.299622%,57.598877%);fill-opacity:1;" d="M 138.644531 94.417969 C 137.789063 95.101563 136.425781 95.957031 136.257813 95.785156 C 135.914063 95.273438 134.71875 94.589844 134.035156 94.246094 L 139.15625 84.855469 C 139.5 84.511719 139.671875 84.34375 140.183594 84.34375 C 142.230469 84.34375 142.914063 86.5625 141.890625 89.296875 C 141.378906 91.171875 140.183594 93.222656 138.644531 94.417969 Z M 180.316406 102.957031 C 180.144531 102.273438 179.976563 102.613281 179.464844 103.46875 C 179.464844 103.640625 178.949219 103.640625 178.609375 103.640625 L 177.242188 103.640625 C 177.070313 103.640625 177.070313 103.8125 177.070313 103.984375 C 177.070313 104.152344 177.070313 104.324219 177.242188 104.324219 L 178.609375 104.324219 C 178.949219 104.324219 178.949219 104.664063 178.777344 105.007813 C 177.925781 106.886719 177.070313 108.078125 175.878906 109.617188 C 175.703125 109.957031 175.191406 110.128906 174.851563 110.128906 L 173.484375 110.128906 C 173.3125 110.128906 173.3125 110.128906 173.3125 110.300781 C 173.3125 110.472656 173.3125 110.644531 173.484375 110.644531 L 174.851563 110.644531 C 175.363281 110.644531 174.683594 110.984375 174.683594 111.152344 C 172.460938 114.058594 170.925781 115.425781 169.386719 116.789063 C 169.046875 116.960938 168.191406 116.789063 167.507813 116.789063 L 166.3125 116.789063 C 166.144531 116.789063 165.972656 116.960938 165.972656 117.132813 C 165.972656 117.304688 166.144531 117.472656 166.3125 117.472656 L 167.507813 117.472656 C 168.53125 117.472656 167.851563 117.984375 167.679688 117.984375 C 164.265625 120.890625 159.140625 121.914063 156.746094 121.570313 C 149.0625 120.546875 147.523438 114.910156 147.015625 112.523438 C 146.84375 112.007813 146.503906 110.984375 146.328125 110.472656 C 146.160156 109.273438 149.574219 108.9375 150.601563 109.445313 C 151.96875 110.472656 155.382813 111.496094 157.941406 111.496094 C 160.335938 111.496094 165.460938 109.789063 166.824219 105.519531 C 168.359375 101.25 164.605469 96.46875 162.894531 94.761719 C 160.847656 92.710938 158.96875 89.464844 159.652344 86.902344 C 160.335938 85.023438 161.359375 84.34375 163.578125 84.34375 C 166.480469 84.34375 168.703125 86.222656 168.703125 88.78125 C 168.703125 88.953125 168.53125 89.296875 168.359375 89.296875 L 167.339844 89.296875 C 167.164063 89.296875 166.996094 89.464844 166.996094 89.636719 C 166.996094 89.808594 167.164063 89.808594 167.339844 89.808594 L 168.359375 89.808594 C 168.53125 89.808594 168.703125 90.148438 168.703125 90.488281 C 168.53125 91.34375 168.359375 91.855469 168.191406 92.882813 C 168.019531 93.394531 168.875 93.734375 169.046875 93.394531 L 173.65625 85.195313 C 173.996094 84.511719 173.3125 84.34375 172.804688 84.511719 C 171.4375 85.023438 169.386719 85.367188 168.703125 84.855469 C 166.996094 83.488281 165.460938 82.804688 163.066406 82.804688 C 158.96875 82.804688 156.234375 83.828125 154.355469 87.074219 C 154.1875 87.414063 153.847656 87.414063 153.503906 87.414063 L 152.648438 87.414063 C 152.480469 87.414063 152.308594 87.414063 152.308594 87.585938 C 152.308594 87.757813 152.480469 87.929688 152.648438 87.929688 L 153.332031 87.929688 C 153.675781 87.929688 153.847656 87.929688 153.675781 88.269531 C 153.503906 88.613281 153.503906 88.953125 153.332031 89.296875 C 152.820313 90.660156 152.992188 92.710938 153.675781 94.589844 C 153.847656 94.761719 153.675781 94.761719 153.332031 94.761719 L 152.140625 94.761719 C 151.96875 94.761719 151.796875 94.929688 151.796875 95.101563 C 151.796875 95.101563 151.96875 95.273438 152.140625 95.273438 L 153.332031 95.273438 C 153.847656 95.273438 154.015625 95.273438 154.355469 95.613281 C 154.867188 96.636719 155.554688 97.324219 156.40625 98.347656 C 156.578125 98.6875 155.554688 98.6875 155.039063 98.6875 L 150.089844 98.6875 C 149.917969 98.6875 149.746094 98.859375 149.746094 99.03125 C 149.746094 99.199219 149.917969 99.199219 150.089844 99.199219 L 155.039063 99.199219 C 155.894531 99.199219 157.261719 99.199219 157.433594 99.371094 C 158.628906 100.90625 159.992188 102.957031 160.335938 104.835938 C 160.335938 105.347656 160.164063 105.519531 159.480469 105.519531 L 158.800781 105.519531 C 158.628906 105.519531 158.628906 105.691406 158.628906 105.859375 C 158.628906 106.03125 158.628906 106.03125 158.800781 106.03125 L 159.480469 106.03125 C 159.992188 106.03125 160.164063 106.199219 160.164063 106.542969 C 159.480469 108.59375 158.457031 110.128906 154.527344 110.128906 C 150.429688 110.128906 149.574219 106.03125 150.769531 101.761719 C 150.941406 100.90625 150.769531 100.566406 150.429688 101.25 L 147.523438 105.691406 C 147.355469 105.859375 147.1875 106.03125 146.671875 106.03125 L 146.328125 106.03125 C 146.160156 106.03125 145.988281 106.199219 145.988281 106.371094 C 145.988281 106.542969 146.160156 106.714844 146.328125 106.714844 C 146.671875 106.714844 146.84375 106.886719 146.671875 107.058594 L 145.648438 108.765625 C 143.769531 104.664063 140.863281 99.882813 139.328125 98.003906 C 143.257813 97.664063 148.894531 94.078125 149.917969 90.832031 C 151.453125 85.367188 145.988281 83.316406 143.085938 83.316406 L 130.105469 83.316406 C 128.398438 83.316406 128.230469 84.511719 129.9375 84.511719 C 130.789063 84.511719 131.644531 85.367188 131.132813 86.222656 L 128.230469 91.34375 C 128.058594 91.6875 127.203125 91.6875 126.007813 91.6875 L 124.8125 91.6875 C 124.644531 91.6875 124.472656 91.855469 124.472656 92.027344 C 124.472656 92.199219 124.644531 92.199219 124.8125 92.199219 L 126.007813 92.199219 C 126.859375 92.199219 127.71875 92.367188 127.375 92.882813 L 123.960938 99.03125 C 123.785156 99.371094 123.445313 99.371094 122.25 99.371094 L 121.054688 99.371094 C 120.886719 99.371094 120.714844 99.542969 120.714844 99.714844 C 120.714844 99.882813 120.886719 99.882813 121.054688 99.882813 L 122.25 99.882813 C 123.105469 99.882813 123.445313 100.054688 123.273438 100.566406 L 118.664063 108.765625 C 118.152344 109.273438 117.46875 109.445313 116.445313 109.445313 C 114.734375 109.445313 114.734375 110.8125 116.445313 110.8125 L 127.546875 110.8125 C 129.253906 110.8125 128.910156 109.445313 127.886719 109.445313 C 127.203125 109.445313 126.691406 108.253906 127.03125 107.738281 L 132.667969 96.980469 L 133.351563 96.980469 C 135.742188 96.980469 136.425781 101.078125 136.9375 105.519531 C 136.9375 105.859375 136.257813 105.859375 135.0625 105.859375 L 131.8125 105.859375 C 131.8125 105.859375 131.644531 106.03125 131.644531 106.199219 C 131.644531 106.371094 131.8125 106.542969 131.8125 106.542969 L 135.0625 106.542969 C 135.914063 106.542969 136.9375 106.542969 137.109375 106.714844 C 137.277344 108.765625 137.449219 110.472656 137.789063 112.007813 C 137.964844 112.523438 136.9375 112.523438 136.085938 112.523438 L 131.984375 112.523438 L 131.8125 112.691406 C 131.8125 112.863281 131.984375 113.03125 131.984375 113.03125 L 136.085938 113.03125 C 137.277344 113.03125 137.964844 113.03125 138.132813 113.375 C 139.84375 119.691406 147.1875 124.648438 154.355469 124.304688 C 160.679688 124.132813 165.800781 120.71875 168.53125 118.667969 C 172.117188 115.765625 177.242188 109.789063 179.464844 105.347656 C 179.804688 104.664063 180.488281 103.640625 180.316406 102.957031 "/>
<path style=" stroke:none;fill-rule:evenodd;fill:rgb(30.599976%,24.299622%,57.598877%);fill-opacity:1;" d="M 76.140625 74.949219 C 74.945313 76.316406 73.578125 76.65625 72.042969 76.65625 L 71.699219 76.65625 L 74.433594 71.191406 C 74.433594 70.851563 74.773438 70.679688 75.117188 70.679688 C 75.457031 70.679688 75.457031 69.996094 74.945313 69.996094 L 70.675781 69.996094 C 70.332031 69.996094 70.164063 70.679688 70.503906 70.679688 C 70.84375 70.679688 71.015625 71.191406 70.84375 71.535156 L 68.285156 76.316406 C 68.113281 76.484375 67.941406 76.65625 67.601563 76.65625 C 67.257813 76.828125 66.917969 77.511719 67.429688 77.511719 L 74.261719 77.511719 C 74.773438 77.511719 74.945313 77.167969 75.117188 77 L 76.480469 74.949219 C 76.652344 74.609375 76.3125 74.609375 76.140625 74.949219 "/>
<path style=" stroke:none;fill-rule:evenodd;fill:rgb(30.599976%,24.299622%,57.598877%);fill-opacity:1;" d="M 96.804688 70.167969 C 96.632813 70.339844 96.121094 70.339844 95.949219 70.167969 C 95.269531 69.824219 94.242188 69.484375 93.730469 69.484375 C 92.023438 69.484375 90.828125 69.65625 90.144531 71.191406 C 89.632813 72.558594 90.144531 73.582031 91.679688 74.265625 C 92.195313 74.609375 93.046875 74.949219 92.707031 75.804688 C 92.535156 76.316406 91.851563 76.316406 91.339844 76.316406 C 90.484375 76.316406 89.460938 75.804688 89.289063 74.609375 C 89.117188 74.265625 88.777344 74.4375 88.605469 74.609375 L 87.582031 76.484375 C 87.582031 76.828125 87.921875 77 88.09375 76.828125 C 88.4375 76.484375 89.117188 76.484375 89.460938 76.65625 C 89.972656 77 91.167969 77.683594 92.023438 77.511719 C 93.558594 77.511719 94.753906 77.167969 95.609375 75.804688 C 96.464844 74.4375 95.949219 73.242188 94.414063 72.558594 C 93.558594 72.046875 92.875 71.363281 93.21875 70.679688 C 93.558594 70.167969 94.242188 70.339844 94.585938 70.339844 C 95.269531 70.507813 96.121094 71.191406 96.121094 71.703125 C 96.292969 71.875 96.464844 72.046875 96.632813 71.703125 L 97.144531 70.507813 C 97.316406 70.339844 96.976563 70.167969 96.804688 70.167969 "/>
<path style=" stroke:none;fill-rule:evenodd;fill:rgb(30.599976%,24.299622%,57.598877%);fill-opacity:1;" d="M 144.621094 72.21875 L 145.136719 71.019531 C 145.476563 70.507813 144.964844 69.996094 144.28125 69.996094 L 136.257813 69.996094 C 135.742188 69.996094 135.914063 70.679688 136.085938 70.679688 C 136.597656 70.679688 136.769531 71.191406 136.425781 71.703125 L 134.035156 76.316406 C 133.691406 76.65625 133.523438 76.828125 133.011719 76.828125 C 132.496094 76.828125 132.324219 77.511719 133.011719 77.511719 L 141.035156 77.511719 C 141.378906 77.511719 141.550781 77.339844 141.722656 77.167969 L 142.742188 75.632813 C 143.085938 75.289063 142.574219 75.289063 142.402344 75.460938 C 140.863281 77 139.5 76.828125 138.304688 76.828125 L 137.449219 76.828125 L 138.476563 74.4375 L 138.644531 74.4375 C 139.5 74.4375 140.183594 74.4375 140.523438 74.949219 C 140.523438 75.121094 140.863281 75.121094 141.035156 74.949219 L 142.0625 73.070313 C 142.0625 72.730469 141.722656 72.730469 141.550781 72.898438 C 141.207031 73.582031 139.5 73.410156 139.15625 73.410156 L 138.816406 73.410156 L 140.355469 70.679688 L 141.890625 70.679688 C 142.742188 70.679688 143.601563 71.363281 143.9375 72.046875 C 143.9375 72.21875 144.453125 72.386719 144.621094 72.21875 "/>
<path style=" stroke:none;fill-rule:evenodd;fill:rgb(30.599976%,24.299622%,57.598877%);fill-opacity:1;" d="M 104.832031 73.582031 L 107.5625 71.363281 L 107.5625 73.582031 Z M 123.960938 69.996094 L 121.226563 69.996094 C 120.542969 69.996094 120.714844 70.679688 121.054688 70.679688 C 121.566406 70.679688 122.078125 71.363281 121.738281 72.046875 L 120.542969 74.09375 L 117.980469 70.339844 C 117.8125 70.167969 117.46875 69.996094 117.128906 69.996094 L 114.226563 69.996094 C 113.714844 69.996094 113.882813 70.679688 114.054688 70.679688 C 114.566406 70.679688 114.566406 71.019531 114.394531 71.363281 L 112.175781 75.632813 C 112.003906 75.972656 111.320313 76.144531 111.148438 75.632813 L 109.441406 69.996094 C 109.269531 69.824219 108.417969 69.824219 108.074219 69.996094 L 103.808594 73.582031 L 101.414063 73.582031 C 101.074219 73.582031 100.902344 73.753906 100.902344 73.925781 C 100.902344 74.265625 101.074219 74.4375 101.414063 74.4375 L 102.609375 74.4375 L 101.414063 75.460938 C 100.902344 75.972656 100.222656 76.65625 99.707031 76.65625 L 99.367188 76.65625 C 99.027344 76.65625 98.851563 76.65625 98.851563 77 C 98.851563 77.339844 99.027344 77.511719 99.367188 77.511719 L 102.953125 77.511719 C 103.464844 77.511719 103.464844 76.65625 103.121094 76.65625 C 102.78125 76.65625 102.101563 76.144531 102.609375 75.460938 L 103.808594 74.4375 L 105.855469 74.4375 C 107.050781 74.4375 107.90625 75.972656 107.222656 76.316406 L 106.710938 76.65625 C 106.367188 76.828125 106.195313 77.511719 106.710938 77.511719 L 113.539063 77.511719 C 114.054688 77.511719 113.882813 76.828125 113.714844 76.828125 C 113.027344 76.828125 113.371094 75.804688 113.371094 75.460938 L 115.246094 72.046875 L 117.8125 77 C 117.980469 77.339844 118.152344 77.511719 118.320313 77.511719 L 119.347656 77.511719 C 119.6875 77.511719 119.6875 77.339844 119.859375 77 L 122.765625 71.875 C 123.273438 70.851563 123.617188 70.679688 124.128906 70.679688 C 124.472656 70.679688 124.644531 69.996094 123.960938 69.996094 "/>
<path style=" stroke:none;fill-rule:evenodd;fill:rgb(30.599976%,24.299622%,57.598877%);fill-opacity:1;" d="M 83.996094 74.265625 C 83.3125 75.804688 82.117188 76.828125 81.261719 76.316406 C 80.410156 75.972656 80.410156 74.4375 81.09375 72.898438 C 81.945313 71.363281 83.140625 70.507813 83.996094 70.851563 C 84.851563 71.191406 84.851563 72.730469 83.996094 74.265625 Z M 83.3125 69.65625 C 80.921875 69.65625 78.53125 70.851563 78.019531 73.410156 C 77.507813 75.632813 79.042969 77.851563 81.777344 77.851563 C 84.335938 77.851563 86.726563 76.144531 87.242188 73.753906 C 87.753906 71.363281 85.875 69.65625 83.3125 69.65625 "/>
<path style=" stroke:none;fill-rule:evenodd;fill:rgb(30.599976%,24.299622%,57.598877%);fill-opacity:1;" d="M 132.15625 73.410156 L 129.082031 73.410156 C 128.570313 73.410156 128.738281 73.925781 128.910156 73.925781 C 129.082031 73.925781 129.425781 74.09375 129.425781 74.4375 C 129.425781 75.804688 128.910156 76.316406 127.71875 76.316406 C 126.519531 76.316406 126.179688 74.777344 127.03125 73.070313 C 127.375 71.875 128.738281 70.851563 130.449219 70.851563 C 131.304688 70.851563 132.15625 71.019531 132.324219 72.046875 C 132.324219 72.21875 132.667969 72.21875 132.839844 72.046875 L 133.523438 70.679688 C 133.691406 70.507813 133.523438 70.339844 133.183594 70.339844 C 133.011719 70.339844 132.667969 70.679688 132.324219 70.339844 C 131.8125 69.996094 130.449219 69.484375 129.425781 69.484375 C 127.71875 69.484375 125.324219 69.824219 123.785156 72.558594 C 122.421875 75.121094 124.472656 77.683594 126.351563 77.683594 C 127.375 77.683594 128.738281 76.828125 129.425781 76.65625 L 130.105469 77.167969 C 130.277344 77.339844 130.617188 77.511719 130.789063 77.511719 L 131.132813 77.511719 C 131.304688 77.511719 131.472656 77 131.644531 76.828125 L 132.839844 73.925781 C 133.011719 73.582031 132.839844 73.410156 132.15625 73.410156 "/>
<path style=" stroke:none;fill-rule:evenodd;fill:rgb(30.599976%,24.299622%,57.598877%);fill-opacity:1;" d="M 174.683594 70.167969 C 174.339844 70.339844 173.996094 70.339844 173.65625 70.167969 C 173.144531 69.824219 172.117188 69.484375 171.4375 69.484375 C 169.898438 69.484375 168.703125 69.65625 168.019531 71.191406 C 167.339844 72.558594 168.019531 73.582031 169.386719 74.265625 C 170.070313 74.609375 170.925781 74.949219 170.582031 75.804688 C 170.410156 76.316406 169.730469 76.316406 169.21875 76.316406 C 168.359375 76.316406 167.164063 75.804688 166.996094 74.609375 C 166.996094 74.265625 166.480469 74.4375 166.480469 74.609375 L 165.460938 76.484375 C 165.285156 76.828125 165.628906 77 165.800781 76.828125 C 166.144531 76.484375 166.996094 76.484375 167.339844 76.65625 C 167.851563 77 169.046875 77.683594 169.730469 77.511719 C 171.4375 77.511719 172.460938 77.167969 173.3125 75.804688 C 174.167969 74.4375 173.65625 73.242188 172.289063 72.558594 C 171.4375 72.046875 170.753906 71.363281 171.09375 70.679688 C 171.265625 70.167969 172.117188 70.339844 172.460938 70.339844 C 173.144531 70.507813 173.996094 71.191406 173.996094 71.703125 C 173.996094 71.875 174.339844 72.046875 174.511719 71.703125 L 175.019531 70.507813 C 175.191406 70.339844 174.683594 70.167969 174.683594 70.167969 "/>
<path style=" stroke:none;fill-rule:evenodd;fill:rgb(30.599976%,24.299622%,57.598877%);fill-opacity:1;" d="M 152.992188 74.949219 C 151.96875 76.316406 150.601563 76.65625 149.0625 76.65625 L 148.722656 76.65625 L 151.453125 71.191406 C 151.453125 70.851563 151.796875 70.679688 152.140625 70.679688 C 152.480469 70.679688 152.480469 69.996094 151.96875 69.996094 L 147.695313 69.996094 C 147.355469 69.996094 147.1875 70.679688 147.523438 70.679688 C 147.867188 70.679688 148.039063 71.191406 147.867188 71.535156 L 145.308594 76.316406 C 145.136719 76.484375 144.964844 76.65625 144.621094 76.65625 C 144.28125 76.828125 143.9375 77.511719 144.453125 77.511719 L 151.28125 77.511719 C 151.796875 77.511719 151.96875 77.167969 152.140625 77 L 153.503906 74.949219 C 153.675781 74.609375 153.332031 74.609375 152.992188 74.949219 "/>
<path style=" stroke:none;fill-rule:evenodd;fill:rgb(30.599976%,24.299622%,57.598877%);fill-opacity:1;" d="M 163.40625 70.679688 C 164.433594 70.679688 165.285156 71.363281 165.460938 72.046875 C 165.628906 72.21875 166.144531 72.386719 166.144531 72.21875 L 166.824219 71.019531 C 166.996094 70.507813 166.652344 69.996094 165.972656 69.996094 L 157.941406 69.996094 C 157.261719 69.996094 157.433594 70.679688 157.773438 70.679688 C 158.285156 70.679688 158.457031 71.191406 158.113281 71.703125 L 155.726563 76.316406 C 155.382813 76.65625 155.039063 76.828125 154.527344 76.828125 C 154.1875 76.828125 154.015625 77.511719 154.527344 77.511719 L 162.726563 77.511719 C 163.066406 77.511719 163.238281 77.339844 163.40625 77.167969 L 164.433594 75.632813 C 164.773438 75.289063 164.09375 75.289063 163.921875 75.460938 C 162.554688 77 161.019531 76.828125 159.992188 76.828125 L 158.96875 76.828125 L 160.164063 74.4375 L 160.335938 74.4375 C 161.019531 74.4375 161.871094 74.4375 162.042969 74.949219 C 162.214844 75.121094 162.554688 75.121094 162.726563 74.949219 L 163.578125 73.070313 C 163.75 72.730469 163.40625 72.730469 163.238281 72.898438 C 162.894531 73.582031 161.1875 73.410156 160.679688 73.410156 L 160.507813 73.410156 L 161.871094 70.679688 L 163.40625 70.679688 "/>
<path style=" stroke:none;fill-rule:evenodd;fill:rgb(30.599976%,24.299622%,57.598877%);fill-opacity:1;" d="M 98.171875 96.636719 L 95.949219 96.636719 C 95.78125 96.636719 95.609375 96.808594 95.609375 96.980469 C 95.609375 96.980469 95.78125 97.152344 95.949219 97.152344 L 98.171875 97.152344 C 98.851563 97.152344 99.535156 97.324219 99.367188 97.664063 L 93.730469 108.421875 C 93.046875 109.789063 91.511719 109.445313 91.167969 108.421875 L 88.4375 93.734375 L 98.34375 86.050781 C 99.367188 85.195313 101.242188 83.828125 102.269531 83.828125 L 104.316406 83.828125 C 105.6875 83.828125 106.195313 84.511719 105.855469 85.195313 L 105.515625 86.050781 C 105.175781 86.390625 104.488281 86.390625 103.808594 86.390625 L 102.609375 86.390625 C 102.441406 86.390625 102.269531 86.5625 102.269531 86.734375 C 102.269531 86.902344 102.441406 87.074219 102.609375 87.074219 L 103.808594 87.074219 C 104.316406 87.074219 105.003906 87.074219 104.660156 87.414063 L 100.050781 96.296875 C 99.878906 96.636719 98.851563 96.636719 98.171875 96.636719 Z M 115.421875 102.105469 C 110.640625 107.738281 108.074219 109.617188 103.296875 109.617188 C 101.757813 109.617188 100.902344 109.273438 101.242188 108.59375 L 106.882813 97.324219 L 109.101563 97.324219 C 111.492188 97.324219 111.148438 99.199219 110.46875 101.933594 C 110.296875 102.273438 110.640625 102.445313 110.980469 102.105469 L 116.273438 92.710938 C 116.445313 92.027344 115.933594 92.027344 115.589844 92.367188 C 112.855469 96.125 109.953125 95.785156 108.929688 95.785156 L 107.90625 95.785156 L 113.882813 84.34375 L 116.273438 84.34375 C 119.347656 84.511719 120.714844 87.074219 119.859375 93.394531 L 121.054688 93.394531 L 125.496094 84.683594 C 125.839844 84 125.152344 83.316406 124.300781 83.316406 L 94.414063 83.316406 C 92.707031 83.316406 92.535156 84.511719 94.242188 84.511719 C 95.609375 84.511719 95.609375 86.5625 94.414063 87.414063 L 81.605469 97.492188 L 84.167969 109.445313 C 84.335938 110.300781 85.019531 110.8125 86.046875 110.8125 L 110.640625 110.8125 C 111.660156 110.8125 112.175781 110.300781 112.515625 109.957031 L 116.957031 102.105469 C 117.46875 101.078125 116.105469 101.078125 115.421875 102.105469 "/>
<path style=" stroke:none;fill-rule:evenodd;fill:rgb(30.599976%,24.299622%,57.598877%);fill-opacity:1;" d="M 60.597656 98.859375 L 52.742188 98.859375 L 62.820313 85.707031 Z M 42.851563 98.019531 L 56.671875 72.386719 C 56.84375 72.046875 57.523438 71.363281 58.378906 71.363281 L 62.476563 71.363281 C 64.527344 71.363281 64.355469 69.996094 62.648438 69.996094 L 50.441406 69.996094 C 45.625 77.8125 42.839844 87.0625 42.839844 96.980469 C 42.839844 97.328125 42.84375 97.675781 42.851563 98.019531 Z M 77.675781 109.445313 C 76.992188 109.445313 76.480469 108.9375 76.3125 108.421875 C 76.140625 107.910156 76.140625 106.714844 76.480469 106.199219 L 87.921875 85.707031 C 88.09375 85.367188 88.605469 84.683594 89.117188 84.683594 C 90.144531 84.683594 90.65625 83.316406 88.949219 83.316406 L 79.726563 83.316406 C 78.019531 83.316406 77.847656 84.511719 79.554688 84.511719 C 80.238281 84.511719 80.582031 85.195313 80.410156 85.707031 L 77.847656 90.320313 C 77.507813 90.832031 76.824219 90.832031 75.96875 90.832031 L 73.75 90.832031 C 73.578125 90.832031 73.578125 91.003906 73.578125 91.171875 C 73.578125 91.171875 73.578125 91.34375 73.75 91.34375 L 75.96875 91.34375 C 76.652344 91.34375 76.992188 91.515625 76.652344 92.199219 L 68.285156 107.738281 C 67.601563 108.59375 66.40625 108.765625 66.40625 107.226563 L 69.480469 84.511719 C 69.652344 83.660156 69.308594 83.316406 68.625 83.316406 L 64.015625 83.316406 C 63.503906 83.316406 63.160156 83.488281 62.988281 83.828125 L 61.28125 85.878906 C 61.113281 86.222656 60.597656 86.222656 60.085938 86.222656 L 56.328125 86.222656 C 56.160156 86.222656 55.988281 86.222656 55.988281 86.390625 C 55.988281 86.5625 56.160156 86.734375 56.328125 86.734375 L 59.402344 86.734375 C 59.914063 86.734375 60.597656 86.902344 60.429688 87.074219 L 55.988281 92.539063 C 55.816406 92.710938 55.476563 92.882813 55.132813 92.882813 L 53.9375 92.710938 C 53.769531 92.710938 53.597656 92.882813 53.597656 93.050781 C 53.597656 93.222656 53.769531 93.394531 53.9375 93.394531 L 54.964844 93.394531 C 55.304688 93.394531 55.304688 93.5625 55.132813 93.734375 L 51.035156 98.859375 C 50.863281 99.03125 50.351563 99.03125 50.011719 99.03125 L 46.425781 99.03125 C 46.253906 99.03125 46.082031 99.199219 46.082031 99.371094 C 46.082031 99.542969 46.253906 99.714844 46.425781 99.714844 L 49.5 99.714844 C 50.011719 99.714844 50.351563 99.714844 50.011719 100.054688 L 44.203125 107.398438 C 44.136719 107.484375 44.054688 107.570313 43.957031 107.652344 C 44.179688 108.71875 44.4375 109.773438 44.726563 110.8125 L 48.816406 110.8125 C 50.523438 110.8125 50.011719 109.445313 48.984375 109.445313 C 48.300781 109.445313 47.621094 108.9375 47.105469 108.253906 C 46.9375 107.910156 46.59375 107.058594 47.105469 106.371094 L 52.058594 99.882813 L 60.085938 99.882813 L 58.890625 107.058594 C 58.550781 108.253906 57.183594 109.273438 55.476563 109.617188 L 53.769531 110.128906 L 55.304688 107.566406 C 55.648438 106.886719 54.792969 106.371094 53.9375 107.398438 C 50.824219 111.027344 48.761719 113.699219 46.265625 115.445313 C 46.816406 116.863281 47.425781 118.246094 48.089844 119.597656 C 48.355469 119.484375 48.4375 119.257813 48.644531 118.839844 L 53.425781 110.8125 L 77.335938 110.8125 C 79.042969 110.8125 78.53125 109.445313 77.675781 109.445313 "/>
<path style=" stroke:none;fill-rule:evenodd;fill:rgb(30.599976%,24.299622%,57.598877%);fill-opacity:1;" d="M 142.144531 102.1875 C 141.066406 100.398438 140.050781 98.886719 139.328125 98.003906 C 140.28125 97.921875 141.335938 97.648438 142.398438 97.234375 C 142.398438 97.148438 142.402344 97.066406 142.402344 96.980469 C 142.402344 94.410156 142.21875 91.890625 141.855469 89.425781 C 141.324219 91.265625 140.148438 93.25 138.644531 94.417969 C 137.789063 95.101563 136.425781 95.957031 136.257813 95.785156 C 135.914063 95.273438 134.71875 94.589844 134.035156 94.246094 L 139.15625 84.855469 C 139.5 84.511719 139.671875 84.34375 140.183594 84.34375 C 140.433594 84.34375 140.664063 84.375 140.875 84.441406 C 140.78125 84.0625 140.683594 83.691406 140.578125 83.316406 L 130.105469 83.316406 C 128.398438 83.316406 128.230469 84.511719 129.9375 84.511719 C 130.789063 84.511719 131.644531 85.367188 131.132813 86.222656 L 128.230469 91.34375 C 128.058594 91.6875 127.203125 91.6875 126.007813 91.6875 L 124.8125 91.6875 C 124.644531 91.6875 124.472656 91.855469 124.472656 92.027344 C 124.472656 92.199219 124.644531 92.199219 124.8125 92.199219 L 126.007813 92.199219 C 126.859375 92.199219 127.71875 92.367188 127.375 92.882813 L 123.960938 99.03125 C 123.785156 99.371094 123.445313 99.371094 122.25 99.371094 L 121.054688 99.371094 C 120.886719 99.371094 120.714844 99.542969 120.714844 99.714844 C 120.714844 99.882813 120.886719 99.882813 121.054688 99.882813 L 122.25 99.882813 C 123.105469 99.882813 123.445313 100.054688 123.273438 100.566406 L 118.664063 108.765625 C 118.152344 109.273438 117.46875 109.445313 116.445313 109.445313 C 114.734375 109.445313 114.734375 110.8125 116.445313 110.8125 L 127.546875 110.8125 C 129.253906 110.8125 128.910156 109.445313 127.886719 109.445313 C 127.203125 109.445313 126.691406 108.253906 127.03125 107.738281 L 132.667969 96.980469 L 133.351563 96.980469 C 135.742188 96.980469 136.425781 101.078125 136.9375 105.519531 C 136.9375 105.859375 136.257813 105.859375 135.0625 105.859375 L 131.8125 105.859375 C 131.8125 105.859375 131.644531 106.03125 131.644531 106.199219 C 131.644531 106.371094 131.8125 106.542969 131.8125 106.542969 L 135.0625 106.542969 C 135.914063 106.542969 136.9375 106.542969 137.109375 106.714844 C 137.277344 108.765625 137.449219 110.472656 137.789063 112.007813 C 137.964844 112.523438 136.9375 112.523438 136.085938 112.523438 L 131.984375 112.523438 L 131.8125 112.691406 C 131.8125 112.863281 131.984375 113.03125 131.984375 113.03125 L 136.085938 113.03125 C 137.277344 113.03125 137.964844 113.03125 138.132813 113.375 C 138.332031 114.109375 138.605469 114.824219 138.949219 115.515625 C 140.582031 111.316406 141.671875 106.84375 142.144531 102.1875 "/>
<path style=" stroke:none;fill-rule:evenodd;fill:rgb(30.599976%,24.299622%,57.598877%);fill-opacity:1;" d="M 76.140625 74.949219 C 74.945313 76.316406 73.578125 76.65625 72.042969 76.65625 L 71.699219 76.65625 L 74.433594 71.191406 C 74.433594 70.851563 74.773438 70.679688 75.117188 70.679688 C 75.457031 70.679688 75.457031 69.996094 74.945313 69.996094 L 70.675781 69.996094 C 70.332031 69.996094 70.164063 70.679688 70.503906 70.679688 C 70.84375 70.679688 71.015625 71.191406 70.84375 71.535156 L 68.285156 76.316406 C 68.113281 76.484375 67.941406 76.65625 67.601563 76.65625 C 67.257813 76.828125 66.917969 77.511719 67.429688 77.511719 L 74.261719 77.511719 C 74.773438 77.511719 74.945313 77.167969 75.117188 77 L 76.480469 74.949219 C 76.652344 74.609375 76.3125 74.609375 76.140625 74.949219 "/>
<path style=" stroke:none;fill-rule:evenodd;fill:rgb(30.599976%,24.299622%,57.598877%);fill-opacity:1;" d="M 96.804688 70.167969 C 96.632813 70.339844 96.121094 70.339844 95.949219 70.167969 C 95.269531 69.824219 94.242188 69.484375 93.730469 69.484375 C 92.023438 69.484375 90.828125 69.65625 90.144531 71.191406 C 89.632813 72.558594 90.144531 73.582031 91.679688 74.265625 C 92.195313 74.609375 93.046875 74.949219 92.707031 75.804688 C 92.535156 76.316406 91.851563 76.316406 91.339844 76.316406 C 90.484375 76.316406 89.460938 75.804688 89.289063 74.609375 C 89.117188 74.265625 88.777344 74.4375 88.605469 74.609375 L 87.582031 76.484375 C 87.582031 76.828125 87.921875 77 88.09375 76.828125 C 88.4375 76.484375 89.117188 76.484375 89.460938 76.65625 C 89.972656 77 91.167969 77.683594 92.023438 77.511719 C 93.558594 77.511719 94.753906 77.167969 95.609375 75.804688 C 96.464844 74.4375 95.949219 73.242188 94.414063 72.558594 C 93.558594 72.046875 92.875 71.363281 93.21875 70.679688 C 93.558594 70.167969 94.242188 70.339844 94.585938 70.339844 C 95.269531 70.507813 96.121094 71.191406 96.121094 71.703125 C 96.292969 71.875 96.464844 72.046875 96.632813 71.703125 L 97.144531 70.507813 C 97.316406 70.339844 96.976563 70.167969 96.804688 70.167969 "/>
<path style=" stroke:none;fill-rule:evenodd;fill:rgb(30.599976%,24.299622%,57.598877%);fill-opacity:1;" d="M 136.125 72.285156 L 134.035156 76.316406 C 133.691406 76.65625 133.523438 76.828125 133.011719 76.828125 C 132.496094 76.828125 132.324219 77.511719 133.011719 77.511719 L 138.609375 77.511719 C 138.519531 77.28125 138.425781 77.054688 138.328125 76.828125 C 138.320313 76.828125 138.3125 76.828125 138.304688 76.828125 L 137.449219 76.828125 L 137.886719 75.816406 C 137.34375 74.609375 136.757813 73.433594 136.125 72.285156 "/>
<path style=" stroke:none;fill-rule:evenodd;fill:rgb(30.599976%,24.299622%,57.598877%);fill-opacity:1;" d="M 104.832031 73.582031 L 107.5625 71.363281 L 107.5625 73.582031 Z M 123.960938 69.996094 L 121.226563 69.996094 C 120.542969 69.996094 120.714844 70.679688 121.054688 70.679688 C 121.566406 70.679688 122.078125 71.363281 121.738281 72.046875 L 120.542969 74.09375 L 117.980469 70.339844 C 117.8125 70.167969 117.46875 69.996094 117.128906 69.996094 L 114.226563 69.996094 C 113.714844 69.996094 113.882813 70.679688 114.054688 70.679688 C 114.566406 70.679688 114.566406 71.019531 114.394531 71.363281 L 112.175781 75.632813 C 112.003906 75.972656 111.320313 76.144531 111.148438 75.632813 L 109.441406 69.996094 C 109.269531 69.824219 108.417969 69.824219 108.074219 69.996094 L 103.808594 73.582031 L 101.414063 73.582031 C 101.074219 73.582031 100.902344 73.753906 100.902344 73.925781 C 100.902344 74.265625 101.074219 74.4375 101.414063 74.4375 L 102.609375 74.4375 L 101.414063 75.460938 C 100.902344 75.972656 100.222656 76.65625 99.707031 76.65625 L 99.367188 76.65625 C 99.027344 76.65625 98.851563 76.65625 98.851563 77 C 98.851563 77.339844 99.027344 77.511719 99.367188 77.511719 L 102.953125 77.511719 C 103.464844 77.511719 103.464844 76.65625 103.121094 76.65625 C 102.78125 76.65625 102.101563 76.144531 102.609375 75.460938 L 103.808594 74.4375 L 105.855469 74.4375 C 107.050781 74.4375 107.90625 75.972656 107.222656 76.316406 L 106.710938 76.65625 C 106.367188 76.828125 106.195313 77.511719 106.710938 77.511719 L 113.539063 77.511719 C 114.054688 77.511719 113.882813 76.828125 113.714844 76.828125 C 113.027344 76.828125 113.371094 75.804688 113.371094 75.460938 L 115.246094 72.046875 L 117.8125 77 C 117.980469 77.339844 118.152344 77.511719 118.320313 77.511719 L 119.347656 77.511719 C 119.6875 77.511719 119.6875 77.339844 119.859375 77 L 122.765625 71.875 C 123.273438 70.851563 123.617188 70.679688 124.128906 70.679688 C 124.472656 70.679688 124.644531 69.996094 123.960938 69.996094 "/>
<path style=" stroke:none;fill-rule:evenodd;fill:rgb(30.599976%,24.299622%,57.598877%);fill-opacity:1;" d="M 83.996094 74.265625 C 83.3125 75.804688 82.117188 76.828125 81.261719 76.316406 C 80.410156 75.972656 80.410156 74.4375 81.09375 72.898438 C 81.945313 71.363281 83.140625 70.507813 83.996094 70.851563 C 84.851563 71.191406 84.851563 72.730469 83.996094 74.265625 Z M 83.3125 69.65625 C 80.921875 69.65625 78.53125 70.851563 78.019531 73.410156 C 77.507813 75.632813 79.042969 77.851563 81.777344 77.851563 C 84.335938 77.851563 86.726563 76.144531 87.242188 73.753906 C 87.753906 71.363281 85.875 69.65625 83.3125 69.65625 "/>
<path style=" stroke:none;fill-rule:evenodd;fill:rgb(30.599976%,24.299622%,57.598877%);fill-opacity:1;" d="M 132.15625 73.410156 L 129.082031 73.410156 C 128.570313 73.410156 128.738281 73.925781 128.910156 73.925781 C 129.082031 73.925781 129.425781 74.09375 129.425781 74.4375 C 129.425781 75.804688 128.910156 76.316406 127.71875 76.316406 C 126.519531 76.316406 126.179688 74.777344 127.03125 73.070313 C 127.375 71.875 128.738281 70.851563 130.449219 70.851563 C 131.304688 70.851563 132.15625 71.019531 132.324219 72.046875 C 132.324219 72.21875 132.667969 72.21875 132.839844 72.046875 L 133.523438 70.679688 C 133.691406 70.507813 133.523438 70.339844 133.183594 70.339844 C 133.011719 70.339844 132.667969 70.679688 132.324219 70.339844 C 131.8125 69.996094 130.449219 69.484375 129.425781 69.484375 C 127.71875 69.484375 125.324219 69.824219 123.785156 72.558594 C 122.421875 75.121094 124.472656 77.683594 126.351563 77.683594 C 127.375 77.683594 128.738281 76.828125 129.425781 76.65625 L 130.105469 77.167969 C 130.277344 77.339844 130.617188 77.511719 130.789063 77.511719 L 131.132813 77.511719 C 131.304688 77.511719 131.472656 77 131.644531 76.828125 L 132.839844 73.925781 C 133.011719 73.582031 132.839844 73.410156 132.15625 73.410156 "/>
<path style=" stroke:none;fill-rule:evenodd;fill:rgb(8.599854%,12.199402%,13.699341%);fill-opacity:1;" d="M 101.242188 51.382813 C 97.488281 51.210938 94.414063 51.039063 91.679688 51.382813 C 92.535156 49.332031 94.074219 47.625 95.269531 46.769531 C 97.828125 46.769531 100.5625 47.28125 102.609375 47.625 C 109.441406 48.988281 119.859375 53.089844 124.472656 59.238281 C 118.320313 55.140625 108.417969 51.894531 101.242188 51.382813 Z M 89.972656 51.550781 C 87.582031 51.722656 83.484375 52.578125 81.945313 53.089844 C 81.605469 52.066406 80.582031 48.988281 80.238281 47.964844 C 84.507813 46.769531 89.289063 46.429688 93.046875 46.769531 C 92.023438 47.453125 90.316406 50.699219 89.972656 51.550781 Z M 70.84375 57.1875 C 70.332031 56.503906 68.113281 54.457031 66.917969 53.941406 C 69.652344 51.894531 76.140625 48.988281 78.703125 48.476563 C 79.042969 49.160156 80.238281 52.234375 80.582031 53.429688 C 78.53125 53.941406 72.722656 55.992188 70.84375 57.1875 Z M 131.8125 64.191406 C 131.132813 63.507813 130.277344 61.96875 124.128906 56.503906 C 115.246094 48.648438 103.296875 45.0625 92.023438 45.0625 C 83.65625 45.0625 76.480469 46.941406 68.457031 51.382813 C 58.207031 57.015625 53.9375 63.507813 52.914063 64.871094 C 52.230469 65.726563 52.058594 66.410156 52.574219 66.582031 C 52.914063 66.75 53.597656 66.070313 54.28125 65.214844 C 57.355469 61.285156 61.28125 57.1875 65.550781 54.96875 C 66.917969 55.140625 68.625 56.847656 69.308594 57.871094 C 66.746094 59.40625 62.308594 62.652344 60.597656 64.019531 C 59.0625 65.214844 58.550781 65.726563 58.890625 66.238281 C 59.234375 66.582031 60.429688 65.898438 61.28125 65.214844 C 62.988281 63.847656 67.773438 60.433594 70.164063 59.066406 C 71.699219 60.945313 71.1875 64.53125 70.675781 65.214844 C 70.332031 65.726563 70.332031 66.070313 70.675781 66.238281 C 71.015625 66.582031 71.359375 66.070313 71.871094 65.386719 C 72.894531 63.679688 72.554688 59.921875 71.53125 58.554688 C 74.433594 56.675781 78.53125 55.480469 81.09375 54.96875 C 81.261719 55.308594 84.335938 64.191406 85.019531 65.898438 C 85.363281 66.75 85.53125 67.777344 86.214844 67.605469 C 86.726563 67.433594 86.386719 66.582031 86.046875 65.554688 C 85.53125 64.359375 83.3125 56.847656 82.628906 54.625 C 83.3125 54.113281 88.4375 53.089844 89.632813 53.261719 C 89.117188 56.503906 91.339844 57.871094 93.902344 59.578125 C 95.4375 60.433594 104.148438 65.554688 106.027344 66.582031 C 107.050781 67.265625 107.90625 67.777344 108.074219 67.433594 C 108.417969 67.09375 107.734375 66.238281 106.710938 65.726563 C 105.855469 65.214844 97.660156 60.605469 94.242188 58.382813 C 91.851563 56.847656 90.484375 55.140625 91.167969 52.917969 C 91.851563 52.746094 94.414063 52.746094 96.976563 52.746094 C 114.394531 52.917969 128.398438 62.824219 130.105469 64.53125 C 130.789063 65.386719 131.984375 66.070313 132.324219 65.726563 C 132.667969 65.554688 132.15625 64.53125 131.8125 64.191406 "/>
<path style=" stroke:none;fill-rule:evenodd;fill:rgb(8.599854%,12.199402%,13.699341%);fill-opacity:1;" d="M 135.570313 123.964844 C 136.257813 122.769531 136.769531 122.082031 136.257813 121.914063 C 135.742188 121.570313 135.230469 122.597656 134.546875 123.792969 C 132.496094 127.207031 130.277344 130.28125 125.324219 134.894531 C 119.6875 139.847656 113.199219 142.921875 110.980469 143.605469 C 109.101563 138.308594 101.929688 115.425781 101.757813 114.910156 C 101.414063 113.886719 101.074219 113.546875 100.902344 113.71875 C 100.390625 113.886719 100.730469 114.398438 100.902344 115.253906 C 101.074219 116.109375 109.613281 143.089844 109.953125 143.945313 C 108.246094 144.800781 101.242188 146.847656 96.464844 146.847656 C 92.195313 147.019531 87.070313 146.847656 84.507813 146.335938 C 81.433594 143.945313 74.601563 134.207031 72.042969 129.085938 C 68.96875 123.109375 66.917969 117.472656 66.40625 115.082031 C 66.234375 113.886719 65.894531 113.203125 65.210938 113.203125 C 64.699219 113.375 65.039063 114.230469 65.382813 115.425781 C 66.234375 118.667969 67.773438 122.941406 71.015625 129.257813 C 74.433594 135.917969 80.410156 143.773438 82.117188 145.992188 C 76.652344 144.800781 69.992188 142.234375 63.503906 137.453125 C 58.039063 133.355469 53.425781 128.234375 51.035156 124.304688 C 50.523438 123.792969 50.179688 122.769531 49.5 123.109375 C 49.328125 123.277344 49.667969 124.132813 50.011719 124.816406 C 53.425781 130.964844 61.792969 139.675781 72.554688 144.628906 C 85.191406 150.09375 98.851563 149.921875 110.980469 145.140625 C 121.738281 141.039063 130.960938 132.503906 135.570313 123.964844 "/>
<path style=" stroke:none;fill-rule:evenodd;fill:rgb(8.599854%,12.199402%,13.699341%);fill-opacity:1;" d="M 101.242188 51.382813 C 97.488281 51.210938 94.414063 51.039063 91.679688 51.382813 C 92.535156 49.332031 94.074219 47.625 95.269531 46.769531 C 97.828125 46.769531 100.5625 47.28125 102.609375 47.625 C 109.441406 48.988281 119.859375 53.089844 124.472656 59.238281 C 118.320313 55.140625 108.417969 51.894531 101.242188 51.382813 Z M 89.972656 51.550781 C 87.582031 51.722656 83.484375 52.578125 81.945313 53.089844 C 81.605469 52.066406 80.582031 48.988281 80.238281 47.964844 C 84.507813 46.769531 89.289063 46.429688 93.046875 46.769531 C 92.023438 47.453125 90.316406 50.699219 89.972656 51.550781 Z M 70.84375 57.1875 C 70.332031 56.503906 68.113281 54.457031 66.917969 53.941406 C 69.652344 51.894531 76.140625 48.988281 78.703125 48.476563 C 79.042969 49.160156 80.238281 52.234375 80.582031 53.429688 C 78.53125 53.941406 72.722656 55.992188 70.84375 57.1875 Z M 52.722656 66.605469 C 53.089844 66.574219 53.683594 65.960938 54.28125 65.214844 C 57.355469 61.285156 61.28125 57.1875 65.550781 54.96875 C 66.917969 55.140625 68.625 56.847656 69.308594 57.871094 C 66.746094 59.40625 62.308594 62.652344 60.597656 64.019531 C 59.0625 65.214844 58.550781 65.726563 58.890625 66.238281 C 59.234375 66.582031 60.429688 65.898438 61.28125 65.214844 C 62.988281 63.847656 67.773438 60.433594 70.164063 59.066406 C 71.699219 60.945313 71.1875 64.53125 70.675781 65.214844 C 70.332031 65.726563 70.332031 66.070313 70.675781 66.238281 C 71.015625 66.582031 71.359375 66.070313 71.871094 65.386719 C 72.894531 63.679688 72.554688 59.921875 71.53125 58.554688 C 74.433594 56.675781 78.53125 55.480469 81.09375 54.96875 C 81.261719 55.308594 84.335938 64.191406 85.019531 65.898438 C 85.363281 66.75 85.53125 67.777344 86.214844 67.605469 C 86.726563 67.433594 86.386719 66.582031 86.046875 65.554688 C 85.53125 64.359375 83.3125 56.847656 82.628906 54.625 C 83.3125 54.113281 88.4375 53.089844 89.632813 53.261719 C 89.117188 56.503906 91.339844 57.871094 93.902344 59.578125 C 95.4375 60.433594 104.148438 65.554688 106.027344 66.582031 C 107.050781 67.265625 107.90625 67.777344 108.074219 67.433594 C 108.417969 67.09375 107.734375 66.238281 106.710938 65.726563 C 105.855469 65.214844 97.660156 60.605469 94.242188 58.382813 C 91.851563 56.847656 90.484375 55.140625 91.167969 52.917969 C 91.851563 52.746094 94.414063 52.746094 96.976563 52.746094 C 114.394531 52.917969 128.398438 62.824219 130.105469 64.53125 C 130.609375 65.160156 131.394531 65.699219 131.90625 65.800781 C 122.804688 53.90625 108.589844 46.257813 92.535156 46.257813 C 76.222656 46.257813 61.777344 54.253906 52.722656 66.605469 "/>
<path style=" stroke:none;fill-rule:evenodd;fill:rgb(8.599854%,12.199402%,13.699341%);fill-opacity:1;" d="M 135.960938 121.859375 C 135.542969 121.96875 135.101563 122.824219 134.546875 123.792969 C 132.496094 127.207031 130.277344 130.28125 125.324219 134.894531 C 119.6875 139.847656 113.199219 142.921875 110.980469 143.605469 C 109.101563 138.308594 101.929688 115.425781 101.757813 114.910156 C 101.414063 113.886719 101.074219 113.546875 100.902344 113.71875 C 100.390625 113.886719 100.730469 114.398438 100.902344 115.253906 C 101.074219 116.109375 109.613281 143.089844 109.953125 143.945313 C 108.246094 144.800781 101.242188 146.847656 96.464844 146.847656 C 92.195313 147.019531 87.070313 146.847656 84.507813 146.335938 C 81.433594 143.945313 74.601563 134.207031 72.042969 129.085938 C 68.96875 123.109375 66.917969 117.472656 66.40625 115.082031 C 66.234375 113.886719 65.894531 113.203125 65.210938 113.203125 C 64.699219 113.375 65.039063 114.230469 65.382813 115.425781 C 66.234375 118.667969 67.773438 122.941406 71.015625 129.257813 C 74.433594 135.917969 80.410156 143.773438 82.117188 145.992188 C 76.652344 144.800781 69.992188 142.234375 63.503906 137.453125 C 58.039063 133.355469 53.425781 128.234375 51.035156 124.304688 C 50.660156 123.929688 50.378906 123.28125 49.988281 123.097656 C 58.683594 137.722656 74.464844 147.53125 92.535156 147.53125 C 111.226563 147.53125 127.421875 137.164063 135.960938 121.859375 "/>
</g>
</svg>
